<?xml version="1.0" encoding="UTF-8"?><svg id="Layer_1" xmlns="http://www.w3.org/2000/svg" viewBox="0 0 512 512"><path d="M256,16C123.66,16,16,123.66,16,256s107.66,240,240,240,240-107.66,240-240S388.34,16,256,16ZM29.41,268.34c-.23-4.15-.34-8.3-.34-12.34,0-16.24,1.75-32.51,5.2-48.35l.48-2.21h58.9v15.61c0,15.75-4.95,28.16-14.71,36.89-9.67,8.65-23.39,13.04-40.78,13.04h-8.61l-.14-2.65ZM200.48,476.07l-3.53-.95c-88.52-23.88-153.61-97.94-165.83-188.68l-.43-3.18h9.89c13.65,0,25.69-2.7,35.79-8.02,9.98-5.25,17.5-12.77,22.37-22.35l2.54-5,2.47,5.03c4.54,9.24,11.78,16.5,21.5,21.59,8.07,4.23,17.43,6.75,27.89,7.52,2.3.17,4.26-1.68,4.26-3.99v-3.94c0-2.07-1.58-3.78-3.63-3.98-13.14-1.28-23.72-5.72-31.52-13.22-9.07-8.73-13.67-20.79-13.67-35.85v-15.61h38.78c2.21,0,4-1.79,4-4v-4.28c0-2.21-1.79-4-4-4H37.9l1.11-3.62C66.65,99.49,148.31,35.19,242.22,29.54l2.97-.18v208.38c0,14.57,3.16,25.75,9.38,33.25,6.05,7.29,14.78,11.41,25.99,12.24l.35.04h72.16c8.83,0,16.87-1.96,23.91-5.82,7-3.84,12.58-9.22,16.57-16,3.99-6.79,6.02-14.6,6.02-23.23s-2.03-16.49-6.03-23.36c-3.99-6.85-9.57-12.28-16.57-16.11-7.04-3.86-15.08-5.82-23.91-5.82s-16.82,1.96-23.78,5.81c-6.93,3.84-12.47,9.26-16.46,16.12-4,6.86-6.03,14.72-6.03,23.36,0,4.38.66,8.26,1.97,11.59.6,1.53,2.08,2.53,3.73,2.53h5.7c2.59,0,4.5-2.42,3.88-4.93-.71-2.86-1.06-5.93-1.06-9.18,0-9.58,3.03-17.55,9.01-23.7,6-6.18,13.75-9.31,23.04-9.31s17.06,3.13,23.14,9.29c6.07,6.16,9.14,14.14,9.14,23.72s-3.08,17.32-9.14,23.48c-6.08,6.17-13.86,9.29-23.14,9.29h-72.57l-.3-.07c-7.38-1.62-12.87-5.48-16.33-11.49-3.34-5.8-4.97-14.16-4.97-25.57V29.08l2.87.07c66.46,1.68,128.67,32.42,170.68,84.35l.62.77v114.75c0,17.82,3.39,31.32,10.07,40.12,5.38,7.09,21.95,18.93,34.46,23l.66.22c.95.31,1.52,1.27,1.35,2.25l-.12.69c-6.39,36.46-21.93,71.22-44.92,100.53l-.84,1.07h-101.25v-30.98h79.03v-46.26c0-2.76-.66-4.81-1.96-6.11-1.3-1.3-3.36-1.96-6.12-1.96h-81.17c-2.21,0-4,1.79-4,4v4.28c0,2.21,1.79,4,4,4h75.03v30.01h-79.03v47.23c0,2.8.64,4.8,1.96,6.11,1.3,1.3,3.36,1.96,6.12,1.96h97.03l-4.61,4.75c-43.17,44.49-100.98,68.99-162.78,68.99-13.19,0-26.47-1.16-39.47-3.45l-2.32-.41M481.93,277.22c-.13,1.46-1.74,2.29-3,1.55l-1.09-.64c-8.24-4.83-22.19-16.01-25.29-22.51-3.47-7.27-5.23-17.68-5.23-30.93v-91.05l5.23,9.03c19.88,34.34,30.39,73.53,30.39,113.34,0,6.51-.3,13.22-.89,19.95l-.11,1.26Z"/><path d="M214.21,278.26v-77.1c0-4.42-3.58-8-8-8h-31.7c-2.21,0-4,1.79-4,4v4.28c0,2.21,1.79,4,4,4h25.97v72.82c0,2.21,1.79,4,4,4h5.73c2.21,0,4-1.79,4-4Z"/></svg>