<?xml version="1.0" encoding="UTF-8"?><svg id="Intaglio" xmlns="http://www.w3.org/2000/svg" viewBox="0 0 480 480"><path d="M316.5,349.92v30.98h101.25l.84-1.07c23-29.31,38.53-64.07,44.92-100.53l.12-.69c.17-.98-.4-1.94-1.35-2.25l-.66-.22c-12.51-4.07-29.08-15.91-34.46-23-6.68-8.8-10.07-22.29-10.07-40.12v-114.75l-.62-.77C374.46,45.58,312.25,14.83,245.8,13.16l-2.87-.07v204.78c0,11.4,1.62,19.77,4.97,25.57,3.45,6,8.95,9.87,16.33,11.49l.3.07h72.57c9.28,0,17.07-3.13,23.14-9.29,6.07-6.15,9.14-14.05,9.14-23.48s-3.08-17.56-9.14-23.72c-6.08-6.17-13.87-9.29-23.14-9.29s-17.04,3.13-23.04,9.31c-5.98,6.15-9.01,14.13-9.01,23.7,0,3.25.36,6.32,1.06,9.18.62,2.51-1.29,4.93-3.88,4.93h-5.7c-1.64,0-3.13-1-3.73-2.53-1.31-3.32-1.97-7.2-1.97-11.59,0-8.64,2.03-16.5,6.03-23.36,3.99-6.86,9.53-12.28,16.46-16.12,6.96-3.86,14.96-5.81,23.78-5.81s16.87,1.96,23.91,5.82c7,3.84,12.57,9.26,16.57,16.11,4,6.87,6.03,14.73,6.03,23.36s-2.02,16.44-6.02,23.23c-3.99,6.78-9.57,12.16-16.57,16-7.04,3.86-15.08,5.82-23.91,5.82h-72.16l-.35-.04c-11.21-.83-19.94-4.95-25.99-12.24-6.23-7.5-9.38-18.69-9.38-33.25V13.36l-2.97.18C132.31,19.19,50.65,83.49,23.01,173.54l-1.11,3.62h109.48c2.21,0,4,1.79,4,4v4.28c0,2.21-1.79,4-4,4h-38.78v15.61c0,15.07,4.6,27.13,13.67,35.85,7.79,7.5,18.38,11.94,31.52,13.22,2.06.2,3.63,1.91,3.63,3.98v3.94c0,2.31-1.95,4.16-4.26,3.99-10.46-.77-19.82-3.3-27.89-7.52-9.73-5.09-16.96-12.35-21.5-21.59l-2.47-5.03-2.54,5c-4.87,9.58-12.4,17.1-22.37,22.35-10.1,5.32-22.14,8.02-35.79,8.02h-9.89l.43,3.18c12.22,90.74,77.31,164.8,165.83,188.68l3.53.95,13.73,2.99,2.32.41c13,2.29,26.28,3.45,39.47,3.45,61.8,0,119.61-24.5,162.78-68.99l4.61-4.75h-97.03c-2.76,0-4.82-.66-6.12-1.96-1.32-1.32-1.96-3.32-1.96-6.11v-47.23h79.03v-30.01h-75.03c-2.21,0-4-1.79-4-4v-4.28c0-2.21,1.79-4,4-4h81.17c2.76,0,4.81.66,6.12,1.96,1.3,1.3,1.96,3.36,1.96,6.11v46.26h-79.03ZM198.21,178.81v83.45c0,2.21-1.79,4-4,4h-5.73c-2.21,0-4-1.79-4-4v-72.79h-25.97c-2.21,0-4-1.79-4-4v-4.31c0-2.21,1.79-4,4-4h25.97v-72.79c0-2.21,1.79-4,4-4h5.73c2.21,0,4,1.79,4,4v74.44Z" fill="#283a88"/><path d="M77.66,205.06v-15.61H18.76l-.48,2.21c-3.45,15.84-5.2,32.11-5.2,48.35,0,4.03.11,8.18.34,12.34l.14,2.65h8.61c17.39,0,31.11-4.39,40.78-13.04,9.76-8.73,14.71-21.14,14.71-36.89Z" fill="#283a88"/><path d="M465.93,261.22l.11-1.26c.59-6.73.89-13.44.89-19.95,0-39.81-10.51-79-30.39-113.34l-5.23-9.03v91.05c0,13.26,1.76,23.66,5.23,30.93,3.1,6.5,17.05,17.68,25.29,22.51l1.09.64c1.27.74,2.88-.09,3-1.55Z" fill="#283a88"/></svg>