<?xml version="1.0" encoding="UTF-8"?><svg id="Layer_3" xmlns="http://www.w3.org/2000/svg" viewBox="0 0 512 512"><path d="M362.82,115.01c39.51-22.73,78.66-35.15,123.23-30.84,6.65.64,11.18,7,9.65,13.51-17.87,76.22-77.96,132.12-154.91,151.34,48.82,18.39,84.63,50.57,98.22,95.76,1.95,6.47-2.46,13.1-9.16,13.98-49.47,6.53-92.19-15.06-128.63-47.47,3.76,42.49,1.15,79.6-19.12,112.16-4.48,7.2-15.09,6.9-19.03-.61-51.45-98.08-4.28-231.07,81.56-294.56" fill="#263c81"/><path d="M162.04,121.78c55.69,38.12,102.17,112.9,59.63,173.21-31.52,44.68-83.89,69.92-139.71,63.93-6.81-.73-11.23-7.54-9.25-14.1,14.06-46.56,51.98-78.18,99.39-96.06C94.65,230.02,34.94,175.7,16.3,98.02c-1.52-6.34,2.9-12.59,9.37-13.36,40.74-4.89,82,5.96,117.1,26.53l19.28,10.59" fill="#263c81"/></svg>