<?xml version="1.0" encoding="UTF-8"?><svg id="Layer_3" xmlns="http://www.w3.org/2000/svg" viewBox="0 0 259.72 48"><path d="M74.32,15.77v-3.61h-7.35v-2.79h17.62v2.79h-7v3.61c0,6.6,2.99,13.19,8.25,16.24l-2.06,2.49c-3.76-2.26-6.42-6.38-7.76-11.24-1.38,5.26-4.15,9.75-7.97,12.14l-2.15-2.54c5.33-3.18,8.44-10.16,8.42-17.1ZM81.66,18.65h6.45V5.8h3.18v35.28h-3.18v-19.68h-6.45v-2.75ZM99.02,43.06h-3.22V4.86h3.22v38.2Z" fill="#231f20"/><path d="M127.31,14.74c-.02,4.98-4.17,8.42-9.88,8.42s-9.95-3.44-9.93-8.42c-.02-4.96,4.15-8.44,9.93-8.46,5.71.02,9.86,3.5,9.88,8.46ZM117.42,20.41c3.78,0,6.62-2.32,6.62-5.67s-2.84-5.65-6.62-5.63c-3.85-.02-6.66,2.32-6.62,5.63-.04,3.35,2.77,5.67,6.62,5.67ZM113.3,26.34h24.84v9.2h-21.44v4.3h22.82v2.71h-26.12v-9.54h21.4v-3.95h-21.48v-2.71ZM134.78,4.86h3.35v19.64h-3.35V4.86Z" fill="#231f20"/><path d="M146.91,9.58h9.71v-4.68h3.35v4.68h9.71v2.75h-22.77v-2.75ZM158.29,14.44c5.46,0,9.15,2.79,9.2,7.13-.04,4.3-3.74,7.07-9.2,7.05-5.52.02-9.22-2.75-9.2-7.05-.02-4.34,3.67-7.13,9.2-7.13ZM158.29,25.96c3.57.04,5.97-1.7,6.02-4.38-.04-2.73-2.45-4.49-6.02-4.47-3.61-.02-5.99,1.74-5.97,4.47-.02,2.69,2.36,4.43,5.97,4.38ZM152.79,31.24h3.31v8.16h22.34v2.84h-25.65v-11ZM176.68,17.49h5.76v2.84h-5.76v13.19h-3.35V4.9h3.35v12.59Z" fill="#231f20"/><path d="M212.49,30.55l.26,2.49c-8.74,1.63-18.13,1.68-25.01,1.68l-.47-2.88c7.05.02,16.78-.04,25.22-1.29ZM209.82,16.63c-.02,5.33-4.28,8.96-10.27,8.98-6.04-.02-10.33-3.65-10.31-8.98-.02-5.31,4.28-8.96,10.31-8.98,5.99.02,10.25,3.67,10.27,8.98ZM199.55,22.65c4.04,0,6.98-2.45,6.96-6.02.02-3.54-2.92-6.02-6.96-6.02s-7.03,2.47-7,6.02c-.02,3.57,2.92,6.02,7,6.02ZM215.02,4.86h3.35v38.29h-3.35V4.86Z" fill="#231f20"/><path d="M251.94,21.49l.21,2.45c-3.39.54-6.98.88-10.48,1.1v7.54h-3.4v-7.37c-3.87.15-7.54.15-10.74.15l-.47-2.75c7.11-.04,16.69-.11,24.88-1.12ZM239.61,6.45c5.61,0,9.43,2.64,9.45,6.66-.02,4.08-3.85,6.62-9.45,6.62s-9.48-2.54-9.45-6.62c-.02-4.02,3.8-6.66,9.45-6.66ZM232.56,31.07h3.39v8.34h23.76v2.84h-27.16v-11.17ZM239.61,17.23c3.63-.02,6.21-1.63,6.23-4.12-.02-2.45-2.6-4.12-6.23-4.08-3.74-.04-6.27,1.63-6.23,4.08-.04,2.49,2.49,4.1,6.23,4.12ZM258.77,33.9h-3.39v-3.95h-7.91v-2.45h7.91V4.9h3.39v29Z" fill="#231f20"/><path d="M31.89,2.34C34.73.71,37.55-.2,40.73.04c.64.05,1.08.67.92,1.29-1.4,5.49-5.79,9.51-11.38,10.91,3.5,1.32,6.09,3.59,7.16,6.76.21.63-.21,1.31-.87,1.38-3.53.36-6.59-1.21-9.22-3.54.26,2.96.11,5.57-1.17,7.87-.41.74-1.49.72-1.85-.05-3.46-7.2.01-16.74,6.24-21.34" fill="#231f20"/><path d="M31.89,2.34C34.73.71,37.55-.2,40.73.04c.64.05,1.08.67.92,1.29-1.4,5.49-5.79,9.51-11.38,10.91,3.5,1.32,6.09,3.59,7.16,6.76.21.63-.21,1.31-.87,1.38-3.53.36-6.59-1.21-9.22-3.54.26,2.96.11,5.57-1.17,7.87-.41.74-1.49.72-1.85-.05-3.46-7.2.01-16.74,6.24-21.34" fill="#231f20"/><path d="M40.73.04c-3.18-.24-5.99.67-8.83,2.3l-1.34.98c-6.22,4.6-9.7,14.14-6.24,21.34.37.77,1.44.79,1.85.05,1.28-2.31,1.44-4.91,1.17-7.87,2.62,2.33,5.68,3.9,9.22,3.54.66-.07,1.08-.74.87-1.38-1.07-3.18-3.66-5.45-7.16-6.76,5.6-1.4,9.99-5.42,11.38-10.91.16-.62-.28-1.24-.92-1.29Z" fill="#231f20"/><path d="M17.05,2.84l-1.42-.78C13.12.59,10.18-.21,7.27.07c-.64.06-1.08.68-.91,1.3,1.45,5.59,5.81,9.49,11.44,10.85-3.4,1.28-6.14,3.51-7.25,6.78-.22.65.22,1.33.9,1.38,4.01.32,7.74-1.54,10.01-4.75,3.14-4.45-.29-9.98-4.41-12.79Z" fill="#231f20"/><path d="M25.19,26.21c-.41-.01-.8-.15-1.12-.39l.31,22.18h.6l.3-21.79s-.02,0-.04,0c-.02,0-.04,0-.06,0Z" fill="#231f20"/></svg>