<?xml version="1.0" encoding="UTF-8"?><svg id="Layer_1" xmlns="http://www.w3.org/2000/svg" viewBox="0 0 261.77 48"><path d="M75.85,12.42h-7.62v-2.89h18.04v2.89h-7.31v9.13l8.15,10.38-2.23,1.83-7.53-9.71-8.46,10.33-2.18-1.92,9.13-11.05v-9ZM89.97,21.15h-6.86v-2.9h6.86V6.98h-3.03v-2.89h6.15v39.38h-3.12v-22.32ZM100.88,43.47h-3.12V4.09h3.12v39.38Z" fill="#231f20"/><path d="M108.85,14.65c0-1.72.44-3.27,1.31-4.63.88-1.37,2.06-2.46,3.56-3.27,1.5-.82,3.17-1.23,5.01-1.23s3.5.41,4.97,1.23c1.47.82,2.63,1.91,3.5,3.27.86,1.37,1.29,2.91,1.29,4.63s-.43,3.22-1.29,4.59c-.86,1.37-2.03,2.45-3.5,3.25-1.47.8-3.13,1.2-4.97,1.2s-3.51-.4-5.01-1.2c-1.5-.8-2.69-1.89-3.56-3.25-.88-1.37-1.31-2.9-1.31-4.59ZM111.97,14.69c0,1.13.3,2.16.89,3.1.59.94,1.4,1.67,2.41,2.2,1.01.53,2.14.8,3.39.8s2.42-.27,3.43-.82c1.01-.55,1.81-1.29,2.41-2.23.59-.94.89-1.97.89-3.1s-.3-2.21-.89-3.16c-.59-.95-1.39-1.7-2.38-2.25-1-.55-2.12-.82-3.36-.82s-2.38.28-3.41.85c-1.02.56-1.84,1.31-2.45,2.25-.61.94-.91,2-.91,3.18ZM136.96,29.57h-22.18v-2.9h25.3v10.16h-22.18v4.28h23.52v2.9h-26.64v-10.07h22.18v-4.36ZM136.78,6.94h-2.9v-2.9h6.01v20.67h-3.12V6.94Z" fill="#231f20"/><path d="M170.32,12.11h-22.09v-2.89h9.26v-4.54h3.12v4.54h9.71v2.89ZM150.19,21.77c0-1.48.39-2.8,1.18-3.94.79-1.14,1.88-2.04,3.27-2.69,1.4-.65,2.98-.98,4.77-.98s3.36.33,4.72.98c1.37.65,2.43,1.55,3.21,2.69.77,1.14,1.16,2.46,1.16,3.94s-.39,2.81-1.16,3.96c-.77,1.16-1.84,2.06-3.21,2.72-1.37.65-2.94.98-4.72.98s-3.37-.33-4.77-.98c-1.4-.65-2.49-1.56-3.27-2.72-.79-1.16-1.18-2.48-1.18-3.96ZM153.31,21.82c0,1.37.57,2.49,1.72,3.39,1.14.89,2.61,1.34,4.39,1.34s3.18-.43,4.3-1.29c1.11-.86,1.67-1.97,1.67-3.34s-.56-2.59-1.67-3.5c-1.11-.91-2.55-1.36-4.3-1.36s-3.24.45-4.39,1.34c-1.14.89-1.72,2.03-1.72,3.43ZM154.02,43.38v-11.14h3.12v8.24h24.05v2.9h-27.17ZM175.04,6.9h-2.9v-2.9h6.01v13.94h6.41v2.9h-6.41v13.85h-3.12V6.9Z" fill="#231f20"/><path d="M216.56,34.74h-28.46v-2.9h28.42l-.04-24.9h-2.94v-2.9h6.15v39.91h-3.12v-9.22ZM191.08,16.83c0-1.63.44-3.12,1.31-4.45s2.05-2.41,3.52-3.23c1.47-.82,3.07-1.22,4.79-1.22,1.72.06,3.3.51,4.74,1.36,1.44.85,2.6,1.93,3.47,3.25.88,1.32,1.31,2.75,1.31,4.3s-.44,3.03-1.31,4.36c-.88,1.34-2.03,2.41-3.47,3.21-1.44.8-3.02,1.2-4.74,1.2s-3.32-.4-4.79-1.2c-1.47-.8-2.64-1.87-3.52-3.21s-1.31-2.79-1.31-4.36ZM194.2,16.83c0,1.04.3,2,.89,2.89.59.89,1.39,1.6,2.38,2.14.99.53,2.07.8,3.23.8s2.23-.27,3.21-.8,1.76-1.25,2.34-2.14.87-1.86.87-2.89c0-1.1-.29-2.1-.87-3.01-.58-.91-1.36-1.63-2.34-2.18-.98-.55-2.05-.82-3.21-.82s-2.23.27-3.23.82c-1,.55-1.79,1.28-2.38,2.18-.59.91-.89,1.91-.89,3.01Z" fill="#231f20"/><path d="M240.83,27.65h-13.18v-2.89h25.21v2.89h-8.91v6.5h-3.12v-6.5ZM229.74,13.8c0-1.63.39-3.08,1.18-4.34.79-1.26,1.88-2.26,3.27-2.98,1.4-.73,2.98-1.09,4.77-1.09,2.46,0,4.54.65,6.24,1.94,1.69,1.29,2.7,2.99,3.03,5.1h8.28v-5.48h-3.03v-2.67h6.15v30.74h-3.12V15.31h-8.33c-.36,1.99-1.37,3.61-3.03,4.86-1.66,1.25-3.73,1.87-6.19,1.87-1.78,0-3.37-.36-4.77-1.07-1.4-.71-2.49-1.69-3.27-2.92-.79-1.23-1.18-2.65-1.18-4.25ZM232.86,13.8c0,1.54.57,2.82,1.72,3.83,1.14,1.01,2.61,1.51,4.39,1.51s3.34-.5,4.5-1.51c1.16-1.01,1.74-2.29,1.74-3.83s-.59-2.92-1.78-3.96c-1.19-1.04-2.72-1.56-4.59-1.56-1.72,0-3.15.52-4.28,1.56-1.13,1.04-1.69,2.36-1.69,3.96ZM233.22,43.38v-12.25h3.12v9.35h25.43v2.9h-28.55Z" fill="#231f20"/><path d="M24,0C10.77,0,0,10.77,0,24s10.77,24,24,24,24-10.77,24-24S37.23,0,24,0ZM1.34,25.23c-.02-.42-.03-.83-.03-1.23,0-1.62.18-3.25.52-4.84l.05-.22h5.89v1.56c0,1.57-.49,2.82-1.47,3.69-.97.87-2.34,1.3-4.08,1.3h-.86v-.27ZM18.45,46.01l-.35-.1c-8.85-2.39-15.36-9.79-16.58-18.87l-.04-.32h.99c1.37,0,2.57-.27,3.58-.8,1-.53,1.75-1.28,2.24-2.24l.25-.5.25.5c.45.92,1.18,1.65,2.15,2.16.81.42,1.74.67,2.79.75.23.02.43-.17.43-.4v-.39c0-.21-.16-.38-.36-.4-1.31-.13-2.37-.57-3.15-1.32-.91-.87-1.37-2.08-1.37-3.59v-1.56h3.88c.22,0,.4-.18.4-.4v-.43c0-.22-.18-.4-.4-.4H2.19l.11-.36C5.06,8.35,13.23,1.92,22.62,1.35l.3-.02v20.84c0,1.46.32,2.58.94,3.33.6.73,1.48,1.14,2.6,1.22h.03s7.22,0,7.22,0c.88,0,1.69-.2,2.39-.58.7-.38,1.26-.92,1.66-1.6.4-.68.6-1.46.6-2.32s-.2-1.65-.6-2.34c-.4-.69-.96-1.23-1.66-1.61-.7-.39-1.51-.58-2.39-.58s-1.68.2-2.38.58c-.69.38-1.25.93-1.65,1.61-.4.69-.6,1.47-.6,2.34,0,.44.07.83.2,1.16.06.15.21.25.37.25h.57c.26,0,.45-.24.39-.49-.07-.29-.11-.59-.11-.92,0-.96.3-1.75.9-2.37.6-.62,1.37-.93,2.3-.93s1.71.31,2.31.93c.61.62.91,1.41.91,2.37s-.31,1.73-.91,2.35c-.61.62-1.39.93-2.31.93h-7.29c-.74-.17-1.29-.55-1.63-1.16-.33-.58-.5-1.42-.5-2.56V1.31h.29c6.65.17,12.87,3.25,17.07,8.44l.06.08v11.47c0,1.78.34,3.13,1.01,4.01.54.71,2.19,1.89,3.45,2.3l.07.02c.09.03.15.13.14.22v.07c-.65,3.65-2.2,7.12-4.5,10.05l-.08.11h-10.12v-3.1h7.9v-4.63c0-.28-.07-.48-.2-.61-.13-.13-.34-.2-.61-.2h-8.12c-.22,0-.4.18-.4.4v.43c0,.22.18.4.4.4h7.5v3h-7.9v4.72c0,.28.06.48.2.61.13.13.34.2.61.2h9.7l-.46.48c-4.32,4.45-10.1,6.9-16.28,6.9-1.32,0-2.65-.12-3.95-.35l-.23-.04M46.59,26.12c-.01.15-.17.23-.3.16l-.11-.06c-.82-.48-2.22-1.6-2.53-2.25-.35-.73-.52-1.77-.52-3.09v-9.1l.52.9c1.99,3.43,3.04,7.35,3.04,11.33,0,.65-.03,1.32-.09,2v.13Z" fill="#010101"/><path d="M19.82,26.23v-7.71c0-.44-.36-.8-.8-.8h-3.17c-.22,0-.4.18-.4.4v.43c0,.22.18.4.4.4h2.6v7.28c0,.22.18.4.4.4h.57c.22,0,.4-.18.4-.4Z" fill="#010101"/></svg>