<?xml version="1.0" encoding="UTF-8"?>
<svg id="Layer_1" xmlns="http://www.w3.org/2000/svg" viewBox="0 0 278.66 44.45">
  <path d="M21,1.23C9.4,1.23,0,10.63,0,22.23s9.4,21,21,21,21-9.4,21-21S32.6,1.23,21,1.23ZM33.7,36.39l-4.65.02c-1.46,0-2.56-.95-2.51-2.48h-4.23c-1.09,1.17-2.39,1.95-3.9,2.38h-8.42c-1.95-.45-3.38-1.91-4-3.81l.02-11.99c0-.54.7-.86,1-1.18.69-.27,1.35-.67,2.09-.68l3.9-.03-.39-6.91c-.1-1.79-.19-2.52,1.26-3.39,1.46-.88,3.16.69,3.4,1.2l4.4,9.31c.69,1.46,3.21,2.49,4.85,2.71.18-1.21,1.07-2.08,2.28-2.08h4.9c1.26,0,2.3.96,2.3,2.25v12.39c0,1.32-.99,2.3-2.3,2.31Z" fill="currentColor"/>
  <path d="M67.89,4.75h19.15v2.98h-7.73v6.53c0,4.46.53,6.05,2.93,9.12,1.58,1.97,3.89,4.51,6.58,7.2l-2.21,2.16c-2.11-2.11-4.66-5.04-6.29-6.86-1.39-1.58-2.4-3.12-2.59-3.65h-.05c-.14.53-.96,1.87-2.4,3.6-1.78,2.06-3.98,4.51-7.01,7.49l-2.26-2.26c2.83-2.69,5.71-5.76,7.15-7.63,2.3-2.93,2.78-4.9,2.78-9.17v-6.53h-8.06v-2.98ZM92.47,15.27V1.34h3.36v40.8h-3.36v-23.81h-7.78v-3.07h7.78ZM104.37,44.31h-3.36V.43h3.36v43.88Z" fill="currentColor"/>
  <path d="M112.34,12.19v-2.11c0-4.66,4.42-8.74,10.71-8.74s10.71,4.08,10.71,8.74v2.11c0,4.66-4.42,8.74-10.71,8.74s-10.71-4.08-10.71-8.74ZM115.6,10.37v1.54c0,3.26,3.07,6,7.44,6s7.44-2.74,7.44-6v-1.54c0-3.26-3.12-6-7.44-6s-7.44,2.74-7.44,6ZM146.52,24.63v11.33h-23.52v5.62h24.67v2.88h-27.99v-11.33h23.52v-5.57h-23.76v-2.93h27.07ZM146.52,22.03h-3.36V.43h3.36v21.6Z" fill="currentColor"/>
  <path d="M168.74,5.62h10.99v2.93h-25.25v-2.93h10.9V0h3.36v5.62ZM177.14,20.45c0,3.98-3.84,7.73-10.08,7.73s-10.08-3.74-10.08-7.73v-1.82c0-3.98,3.84-7.73,10.08-7.73s10.08,3.74,10.08,7.73v1.82ZM173.92,20.31v-1.54c0-2.35-2.59-4.99-6.86-4.99s-6.86,2.64-6.86,4.99v1.54c0,2.35,2.59,4.99,6.86,4.99s6.86-2.64,6.86-4.99ZM165.71,40.8h24.1v2.98h-27.51v-12.15h3.41v9.17ZM188.47,13.83h6.72v2.98h-6.72v15.55h-3.36V.43h3.36v13.39Z" fill="currentColor"/>
  <path d="M228.11,33.56c-7.92.82-14.69,1.1-29.38,1.1v-2.98c13.97,0,21.65-.24,29.09-1.06l.29,2.93ZM201.04,14.93v-2.3c0-5.23,5.18-9.26,11.43-9.26s11.42,4.08,11.42,9.26v2.3c0,5.18-5.18,9.27-11.42,9.27s-11.43-4.08-11.43-9.27ZM204.3,12.82v1.92c0,3.6,3.94,6.48,8.16,6.48s8.16-2.88,8.16-6.48v-1.92c0-3.6-3.94-6.48-8.16-6.48s-8.16,2.88-8.16,6.48ZM234.59,44.31h-3.41V.43h3.41v43.88Z" fill="currentColor"/>
  <path d="M270.93,22.42c-4.32.43-8.4.72-14.07.91v6.96h-3.41v-6.91c-3.22.1-6.91.1-11.33.1v-2.93c13.83,0,20.26-.19,28.51-1.06l.29,2.93ZM245.2,10.27v-1.82c0-4.08,4.7-7.15,10.56-7.15s10.56,3.07,10.56,7.15v1.82c0,4.08-4.7,7.15-10.56,7.15s-10.56-3.07-10.56-7.15ZM248.41,8.74v1.25c0,2.5,3.31,4.56,7.34,4.56s7.34-2.06,7.34-4.56v-1.25c0-2.5-3.31-4.56-7.34-4.56s-7.34,2.06-7.34,4.56ZM253.02,40.8h25.63v2.98h-29.04v-11.62h3.41v8.64ZM274.29,26.88V.43h3.36v34.08h-3.36v-4.66h-9.89v-2.98h9.89Z" fill="currentColor"/>
</svg>
