<?xml version="1.0" encoding="UTF-8"?><svg id="Layer_1" xmlns="http://www.w3.org/2000/svg" viewBox="0 0 288.54 289.14"><path d="M230.92,25.43v-10.92c0-8.02-6.5-14.51-14.51-14.51s-14.51,6.5-14.51,14.51v10.92h-115.25v-10.92c0-8.02-6.5-14.51-14.51-14.51s-14.51,6.5-14.51,14.51v10.92H0v263.71h288.54V25.43h-57.62ZM263.71,261.63H28.85V87.16h234.86v174.47Z" fill="#231f20"/><polygon points="128.08 170.82 165.98 225.27 197.4 225.27 197.4 123.53 164.49 123.53 164.49 177.98 126.58 123.53 95.16 123.53 95.16 225.27 128.08 225.27 128.08 170.82" fill="#231f20"/></svg>